<?xml version="1.0" standalone="no"?>
<!DOCTYPE svg PUBLIC "-//W3C//DTD SVG 20010904//EN"
 "http://www.w3.org/TR/2001/REC-SVG-20010904/DTD/svg10.dtd">
<svg version="1.0" xmlns="http://www.w3.org/2000/svg"
 width="270.000000pt" height="322.000000pt" viewBox="0 0 270.000000 322.000000"
 preserveAspectRatio="xMidYMid meet">

<g transform="translate(0.000000,322.000000) scale(0.100000,-0.100000)"
fill="#000000" stroke="none">
<path d="M1460 3159 c-47 -19 -128 -89 -160 -138 -18 -28 -42 -52 -55 -55 -13
-3 -31 -9 -40 -12 -10 -4 0 15 24 47 41 53 68 115 57 126 -9 9 -82 -45 -122
-90 -20 -22 -45 -59 -56 -83 -14 -33 -28 -48 -55 -59 -19 -8 -36 -15 -37 -15
-1 0 15 35 37 79 21 43 37 87 35 97 -3 16 -13 10 -60 -35 -55 -51 -108 -136
-108 -172 0 -16 -57 -69 -74 -69 -3 0 1 15 10 33 20 38 44 122 44 156 0 25 -1
24 -35 -9 -45 -44 -93 -138 -101 -201 -5 -35 -13 -52 -30 -64 -33 -21 -35 -19
-19 18 16 40 30 151 20 166 -19 32 -95 -125 -102 -213 -4 -48 -11 -68 -34 -96
-32 -38 -33 -36 -19 41 10 53 4 149 -10 149 -4 0 -20 -28 -36 -62 -22 -50 -29
-83 -34 -158 -5 -84 -21 -140 -40 -140 -3 0 -5 35 -5 78 0 50 -6 87 -16 106
l-16 28 -15 -33 c-24 -51 -32 -140 -18 -212 11 -60 10 -66 -12 -103 l-23 -39
-6 70 c-5 66 -32 145 -49 145 -26 0 -27 -174 -1 -248 15 -43 16 -61 8 -88 -6
-19 -13 -34 -16 -34 -3 0 -14 26 -23 58 -20 67 -54 126 -68 117 -26 -16 0
-184 38 -250 22 -36 28 -89 14 -112 -5 -8 -14 5 -24 35 -17 47 -71 122 -89
122 -31 0 14 -160 66 -238 31 -45 36 -60 33 -100 l-3 -47 -24 49 c-25 51 -92
126 -112 126 -17 0 -2 -65 29 -128 14 -29 48 -78 74 -108 38 -44 48 -63 48
-91 l0 -35 -44 49 c-46 51 -110 93 -122 80 -12 -11 31 -91 71 -136 20 -22 56
-52 79 -67 34 -22 46 -37 58 -76 8 -26 13 -48 10 -48 -2 0 -20 13 -38 30 -38
33 -94 64 -136 74 -23 5 -25 3 -21 -15 10 -36 104 -119 174 -152 65 -31 75
-42 107 -110 2 -5 -21 6 -51 23 -52 29 -171 59 -184 46 -12 -12 50 -65 107
-90 32 -15 84 -32 116 -38 56 -11 79 -27 104 -70 9 -15 4 -14 -37 4 -55 24
-176 37 -187 19 -17 -27 136 -90 230 -95 50 -2 69 -8 93 -29 17 -14 31 -28 31
-30 0 -3 -19 0 -43 5 -40 9 -127 5 -161 -8 -27 -10 0 -32 62 -50 39 -12 80
-15 141 -12 82 4 88 3 138 -27 l52 -31 -92 1 c-68 0 -100 -4 -122 -17 l-30
-17 36 -15 c60 -25 156 -30 226 -13 56 15 65 15 103 0 l42 -17 -62 -12 c-74
-16 -160 -62 -139 -75 37 -23 174 -2 254 39 37 18 45 19 95 8 l55 -13 -52 -17
c-28 -9 -71 -35 -95 -56 l-43 -39 41 -1 c57 0 129 23 198 65 44 26 70 35 104
35 l45 0 -40 -29 c-38 -28 -93 -89 -93 -104 0 -33 149 41 213 105 26 26 62 51
82 57 42 11 44 6 9 -22 -33 -26 -84 -95 -84 -115 0 -53 185 82 221 162 6 13
35 34 70 50 32 15 59 31 59 36 0 14 -6 13 -51 -10 l-40 -21 -29 21 c-16 11
-55 30 -86 41 -68 23 -194 37 -194 22 0 -19 138 -84 190 -90 27 -3 50 -9 50
-13 0 -4 -28 -15 -63 -25 l-62 -17 -36 34 c-47 44 -145 95 -198 104 -42 7 -43
6 -32 -14 15 -28 85 -84 141 -113 l45 -23 -55 -8 c-46 -6 -57 -4 -65 10 -43
71 -184 182 -232 182 -29 0 71 -127 137 -173 25 -18 25 -18 -25 -12 -75 9 -83
13 -90 45 -10 44 -87 144 -140 180 -25 18 -49 29 -52 26 -11 -11 56 -134 96
-176 22 -24 41 -44 41 -46 0 -1 -26 6 -58 17 l-58 19 -18 70 c-19 74 -82 182
-118 201 -20 11 -20 9 -14 -37 8 -53 47 -148 73 -176 27 -30 11 -28 -47 6 -50
30 -55 36 -52 65 4 54 -15 148 -44 211 -15 33 -31 60 -35 60 -15 0 -10 -166 7
-216 8 -25 14 -48 12 -50 -2 -2 -25 16 -51 39 l-47 42 15 49 c19 63 19 138 0
204 -18 58 -30 65 -46 25 -14 -35 -14 -177 0 -220 13 -45 0 -41 -47 13 l-40
47 22 46 c17 37 21 65 21 143 0 109 -13 140 -38 92 -22 -42 -40 -148 -34 -194
3 -22 2 -40 -2 -40 -3 0 -20 23 -37 51 l-31 51 35 69 c31 59 36 81 40 155 6
104 -7 109 -52 21 -20 -41 -30 -78 -34 -127 -2 -38 -8 -67 -12 -65 -4 3 -18
32 -30 65 l-22 60 40 53 c50 64 78 125 87 190 9 57 -2 60 -44 12 -37 -43 -64
-94 -82 -155 l-12 -45 -15 63 -14 63 55 52 c30 29 64 71 75 94 25 48 43 121
32 128 -24 15 -150 -151 -150 -197 0 -10 -4 -18 -10 -18 -6 0 -10 30 -10 70
l0 69 44 30 c62 43 122 114 140 167 14 41 14 44 -3 44 -26 0 -103 -71 -141
-130 -18 -28 -34 -49 -36 -48 -3 4 15 141 19 143 88 39 121 58 160 95 51 46
83 95 69 104 -17 10 -115 -45 -168 -96 -53 -50 -55 -51 -48 -23 22 90 28 99
85 116 30 8 72 25 94 37 50 26 121 97 106 107 -19 11 -116 -23 -170 -59 -56
-38 -61 -34 -32 22 18 35 24 38 83 49 96 16 208 78 208 115 0 19 -101 0 -165
-31 -33 -17 -61 -29 -62 -28 -1 2 12 24 29 50 28 44 33 47 72 47 81 0 216 50
240 89 18 29 -91 23 -176 -9 -27 -10 -48 -15 -48 -11 0 4 15 21 33 38 30 29
37 31 123 35 72 3 102 9 140 29 26 13 49 30 51 36 9 27 -124 25 -202 -3 -15
-5 -13 1 11 25 l31 32 64 -11 c35 -7 86 -9 112 -5 62 8 129 34 124 48 -6 19
-70 29 -151 24 l-78 -5 37 25 c27 18 43 23 63 18 93 -24 187 -22 257 5 l30 12
-30 15 c-16 9 -66 19 -110 22 l-80 6 32 18 c31 17 35 17 93 -3 97 -33 281 -22
250 15 -15 18 -89 35 -155 35 -64 0 -65 12 -3 29 38 11 48 10 93 -10 56 -25
193 -37 235 -21 l25 9 -33 20 c-19 12 -61 26 -95 33 -59 13 -61 13 -29 20 18
4 66 3 106 -3 62 -9 84 -8 139 7 82 22 102 41 61 57 -37 14 -175 6 -229 -14
-94 -33 -122 -30 -65 8 48 31 112 137 83 134 -5 0 -19 -5 -33 -10z m10 -26 c0
-3 -12 -22 -26 -40 -25 -33 -131 -109 -140 -101 -7 8 60 81 105 114 46 33 61
40 61 27z m-210 -51 c0 -14 -55 -84 -99 -127 -24 -23 -41 -33 -41 -25 0 24 35
74 81 119 42 40 59 50 59 33z m-219 -115 c-28 -56 -100 -139 -101 -114 0 26
33 86 76 136 44 50 55 40 25 -22z m649 54 c0 -23 -177 -42 -209 -22 -11 7 -6
12 20 19 43 13 189 15 189 3z m-210 -94 l35 -14 -40 -8 c-42 -9 -160 15 -180
37 -15 16 142 4 185 -15z m-614 -40 c-15 -50 -59 -132 -78 -143 -14 -9 -2 59
19 101 19 38 64 98 69 92 2 -2 -2 -25 -10 -50z m429 -13 c74 -18 -25 -39 -111
-23 -73 13 -86 21 -54 31 26 7 122 3 165 -8z m-580 -81 c-8 -56 -42 -150 -57
-159 -20 -13 -1 101 26 155 15 28 29 51 32 51 4 0 3 -21 -1 -47z m425 7 c12
-7 11 -10 -5 -17 -25 -10 -154 -10 -180 1 -36 14 6 26 90 26 44 0 87 -4 95
-10z m-130 -88 c0 -24 -160 -43 -207 -25 -14 6 -10 10 22 19 46 14 185 18 185
6z m-443 -64 c-8 -82 -35 -164 -50 -149 -20 20 25 211 49 211 4 0 4 -28 1 -62z
m303 -24 c0 -3 -19 -14 -42 -24 -40 -17 -87 -24 -148 -21 -24 2 -24 2 -5 13
44 26 195 51 195 32z m-432 -176 c-5 -85 -22 -121 -34 -74 -8 33 0 158 11 176
16 26 27 -23 23 -102z m312 57 c0 -2 -22 -16 -49 -30 -56 -28 -175 -47 -154
-25 26 27 203 75 203 55z m-420 -175 c11 -57 4 -154 -10 -145 -14 8 -32 144
-25 182 8 46 22 32 35 -37z m290 20 c-38 -29 -100 -57 -147 -65 -24 -4 -43 -4
-43 -1 0 19 149 84 195 85 18 1 18 -1 -5 -19z m-80 -135 c-29 -35 -180 -106
-180 -85 0 16 68 61 127 85 61 25 74 25 53 0z m-299 -62 c11 -25 22 -74 25
-107 5 -57 4 -60 -11 -41 -21 26 -45 109 -45 157 0 21 2 38 5 38 3 0 15 -21
26 -47z m224 -97 c-19 -28 -65 -65 -112 -90 -44 -22 -48 -20 -24 13 21 30 140
115 148 107 3 -2 -3 -16 -12 -30z m-275 -98 c23 -42 53 -148 44 -157 -8 -8
-33 32 -54 89 -42 108 -36 149 10 68z m240 -46 c0 -5 -15 -30 -34 -56 -39 -55
-106 -114 -106 -94 0 19 26 56 79 111 43 45 61 56 61 39z m-274 -154 c26 -32
54 -87 69 -138 l7 -25 -27 25 c-37 35 -106 170 -86 170 5 0 22 -15 37 -32z
m235 -75 c-22 -42 -91 -127 -98 -119 -9 9 38 100 75 145 43 52 56 38 23 -26z
m24 -135 c-14 -62 -94 -195 -95 -157 0 42 72 189 93 189 5 0 5 -15 2 -32z
m-244 -20 c35 -33 84 -107 75 -115 -12 -13 -136 122 -136 149 0 12 29 -4 61
-34z m275 -159 c-8 -62 -44 -159 -58 -159 -14 0 0 93 24 158 25 68 43 69 34 1z
m-263 -35 c34 -17 127 -102 127 -116 0 -15 -74 29 -122 72 -64 56 -66 75 -5
44z m321 -214 c-8 -36 -14 -66 -14 -67 0 -2 -5 -3 -11 -3 -15 0 -6 153 12 195
l12 30 7 -45 c4 -27 2 -71 -6 -110z m-259 19 c22 -6 64 -25 93 -42 99 -59 48
-60 -75 -1 -40 19 -73 39 -73 45 0 11 6 11 55 -2z m359 -20 c8 -40 6 -136 -3
-169 -6 -21 -8 -22 -14 -8 -21 55 -19 208 2 208 5 0 11 -14 15 -31z m104 -133
c16 -35 34 -139 30 -167 -4 -21 -7 -19 -26 23 -24 50 -41 168 -25 168 5 0 15
-11 21 -24z m-260 -36 c28 -12 52 -27 52 -32 0 -23 -146 15 -195 50 -18 13
-15 13 35 10 30 -3 79 -15 108 -28z m397 -92 c27 -40 67 -139 60 -146 -14 -14
-70 74 -91 143 -16 56 -5 57 31 3z m-260 -39 c68 -17 72 -21 35 -30 -32 -7
-137 3 -174 17 -56 21 64 33 139 13z m412 -41 c44 -46 98 -127 89 -135 -10
-10 -93 78 -120 127 -15 27 -23 50 -19 50 5 0 27 -19 50 -42z m247 -111 c26
-26 46 -50 43 -53 -17 -18 -167 104 -167 135 0 17 72 -31 124 -82z m286 72
c60 -13 130 -42 130 -53 0 -15 -90 3 -147 28 -77 36 -70 45 17 25z m-125 -53
c22 -13 49 -34 60 -46 l19 -21 -29 7 c-61 14 -165 81 -165 105 0 11 58 -12
115 -45z m-593 -4 c16 -16 -51 -26 -130 -19 -71 7 -84 13 -62 28 19 13 177 6
192 -9z m810 -98 c-30 -36 -118 -104 -134 -104 -25 0 50 83 108 120 47 30 58
23 26 -16z m-652 4 c-49 -23 -182 -38 -165 -19 20 21 91 40 150 39 l60 0 -45
-20z m451 -42 c-35 -36 -151 -104 -151 -89 0 15 74 80 115 101 60 32 74 27 36
-12z m-191 19 c0 -7 -89 -50 -132 -64 -21 -7 -48 -11 -60 -9 -21 3 -19 5 15
27 21 13 57 29 80 37 42 13 97 18 97 9z"/>
<path d="M1453 2719 c14 -8 17 -25 17 -99 0 -62 -4 -90 -12 -93 -27 -9 -1 -14
42 -8 31 4 40 9 28 13 -15 6 -18 21 -18 92 0 70 3 87 18 95 13 8 4 10 -38 10
-42 0 -51 -2 -37 -10z"/>
<path d="M1546 2715 c-3 -9 -6 -26 -6 -38 1 -21 2 -20 21 6 11 15 28 27 38 27
15 0 16 -7 6 -85 -6 -56 -15 -89 -25 -95 -20 -12 -13 -16 38 -23 38 -5 59 6
31 15 -8 3 -9 28 -3 88 7 70 12 85 27 88 13 3 22 -6 30 -27 15 -41 27 -39 27
3 0 37 0 37 -121 51 -47 6 -57 4 -63 -10z"/>
<path d="M1310 2713 c-30 -6 -51 -23 -28 -23 16 0 28 -36 44 -138 5 -34 3 -40
-15 -45 -18 -4 -32 9 -84 78 -34 46 -67 84 -73 85 -13 0 -24 -68 -24 -146 0
-29 -5 -56 -12 -60 -8 -5 -9 -2 -5 9 3 9 2 19 -3 22 -6 4 -10 -2 -10 -12 0
-10 -7 -29 -16 -41 -42 -60 -134 10 -134 103 0 28 5 38 25 47 22 10 30 8 56
-11 38 -28 45 -23 22 16 l-17 30 -43 -14 c-48 -17 -83 -54 -83 -90 0 -34 23
-84 49 -108 28 -24 92 -26 118 -3 10 9 38 22 62 29 37 11 40 14 22 21 -33 12
-27 47 12 63 30 13 33 13 50 -7 14 -17 15 -23 5 -36 -11 -13 -10 -15 12 -9 14
4 58 15 99 24 51 11 68 19 55 23 -11 4 -21 20 -24 36 -5 26 -1 31 35 49 33 17
41 26 43 53 5 47 -12 62 -67 61 -25 -1 -57 -4 -71 -6z m84 -19 c31 -30 9 -95
-27 -81 -14 5 -30 74 -21 89 8 13 31 9 48 -8z m-201 -146 c-2 -5 -13 -8 -24
-8 -15 0 -19 7 -19 38 l0 37 24 -30 c13 -16 22 -33 19 -37z"/>
<path d="M1808 2663 c-8 -10 -36 -48 -62 -85 -26 -38 -55 -68 -64 -69 -9 -1 1
-7 23 -14 41 -13 60 -10 36 4 -21 14 -4 51 24 51 41 0 55 -11 55 -41 0 -21 -5
-29 -17 -30 -10 -1 5 -9 32 -18 28 -9 79 -32 114 -50 l65 -33 18 22 c26 33 22
41 -11 22 -23 -13 -34 -14 -54 -5 l-26 12 42 77 c23 42 49 79 59 83 13 5 9 11
-23 28 -34 19 -39 20 -35 5 7 -22 -70 -162 -90 -162 -21 0 -30 32 -39 133 -7
90 -17 105 -47 70z m11 -90 c1 -15 -35 -17 -44 -3 -3 5 2 22 12 36 l17 27 7
-24 c4 -13 7 -30 8 -36z"/>
<path d="M2254 2435 c8 -27 -104 -141 -128 -132 -24 10 -19 -7 11 -34 21 -19
25 -20 20 -6 -5 14 6 32 43 70 27 28 51 49 53 46 2 -2 -4 -47 -14 -99 -12 -60
-15 -98 -9 -104 6 -6 35 15 79 57 52 50 74 65 88 60 13 -4 10 3 -11 25 -35 37
-40 39 -31 12 4 -14 -5 -31 -34 -62 -22 -24 -42 -40 -45 -37 -3 3 1 43 10 89
l16 83 -27 26 c-24 23 -26 24 -21 6z"/>
<path d="M2343 2229 c-17 -5 -43 -23 -57 -40 -35 -41 -34 -88 1 -129 25 -30
30 -32 81 -28 47 4 60 10 84 37 38 42 38 90 1 130 -32 34 -65 42 -110 30z
m110 -50 c20 -32 0 -66 -57 -94 -58 -28 -93 -30 -109 -4 -20 32 0 66 55 93 57
29 95 30 111 5z"/>
<path d="M865 2166 c-55 -25 -109 -80 -133 -135 -24 -55 -21 -157 7 -213 46
-96 157 -158 258 -144 60 8 140 43 127 56 -7 7 -23 3 -48 -10 -161 -81 -336
31 -336 215 1 100 55 183 143 220 44 18 193 23 209 7 6 -6 11 -38 12 -71 1
-79 20 -74 24 6 4 86 -5 93 -121 93 -75 0 -101 -4 -142 -24z"/>
<path d="M1155 2180 c3 -5 43 -10 89 -10 97 0 83 11 195 -155 l81 -119 0 71
c0 69 -1 71 -36 98 -46 35 -57 24 -16 -18 18 -18 32 -44 32 -57 0 -18 -18 2
-71 78 -38 56 -79 106 -89 112 -25 13 -193 13 -185 0z"/>
<path d="M1505 2180 c-4 -6 13 -10 42 -10 27 0 54 -5 61 -12 9 -9 12 -71 12
-219 0 -237 -1 -239 -75 -239 -54 0 -57 3 -161 158 l-79 116 -3 -69 c-3 -67
-2 -70 32 -104 20 -19 39 -32 42 -28 4 4 -7 22 -25 41 -24 25 -32 41 -29 62 3
26 9 20 75 -77 39 -59 79 -109 88 -113 31 -12 110 -6 133 10 22 15 22 19 22
243 0 163 -3 230 -12 239 -14 14 -114 16 -123 2z"/>
<path d="M1660 2181 c0 -7 24 -11 63 -11 105 0 107 -3 107 -184 0 -170 6 -186
67 -186 52 0 68 29 68 127 l0 85 -48 41 c-26 22 -50 37 -55 33 -4 -5 12 -25
36 -45 l42 -37 0 -80 c0 -84 -8 -104 -45 -104 -41 0 -45 17 -45 175 0 190 1
188 -109 193 -55 3 -81 1 -81 -7z"/>
<path d="M1930 2180 c-11 -7 3 -10 46 -10 33 0 65 -5 72 -12 8 -8 12 -62 12
-176 0 -152 -2 -167 -22 -204 -57 -101 -207 -120 -285 -36 -42 45 -53 89 -53
218 0 113 -1 120 -20 120 -11 0 -20 -4 -20 -10 0 -5 5 -10 10 -10 6 0 10 -46
10 -117 0 -136 14 -178 73 -230 88 -77 253 -47 308 57 17 30 19 59 19 217 0
170 -1 183 -19 193 -25 13 -111 13 -131 0z"/>
<path d="M882 2129 c-83 -42 -130 -129 -118 -218 19 -142 136 -224 264 -186
63 19 77 34 56 64 -12 17 -19 19 -29 11 -8 -6 -29 -10 -47 -8 -29 3 -40 14
-100 103 -38 54 -68 107 -68 118 0 31 20 58 55 73 47 19 75 6 114 -55 31 -48
34 -50 54 -36 20 13 22 20 17 82 l-5 68 -75 3 c-60 2 -83 -2 -118 -19z"/>
<path d="M1157 2130 c-4 -15 0 -20 13 -20 35 0 39 -23 42 -201 l3 -174 59 -3
c91 -5 97 2 47 52 l-42 43 3 88 c2 52 7 90 14 92 6 2 48 -52 94 -119 46 -68
92 -133 103 -145 23 -26 78 -31 96 -9 8 9 11 74 9 212 l-3 199 -58 3 c-77 4
-83 -13 -28 -73 40 -43 41 -47 41 -112 0 -69 -9 -98 -28 -92 -6 2 -53 65 -104
139 l-93 135 -81 3 c-75 3 -82 1 -87 -18z"/>
<path d="M1660 2124 c0 -18 4 -25 14 -21 7 3 23 -1 35 -9 20 -14 21 -24 21
-148 0 -122 2 -136 23 -167 44 -66 124 -86 205 -49 34 15 47 29 63 64 17 40
19 63 17 198 l-3 153 -61 3 c-48 2 -63 -1 -77 -16 -16 -17 -14 -21 38 -66 l55
-47 0 -90 c0 -50 -5 -99 -11 -111 -17 -32 -74 -51 -115 -38 -55 19 -64 48 -64
213 0 164 4 157 -86 157 -52 0 -54 -1 -54 -26z"/>
<path d="M1156 2081 c-4 -5 -2 -12 4 -16 6 -4 10 -73 10 -179 0 -133 3 -176
13 -185 19 -15 134 -25 142 -11 4 6 -13 10 -47 10 -88 0 -87 -2 -90 204 -2
125 -7 181 -15 183 -6 2 -14 0 -17 -6z"/>
<path d="M2520 2066 c0 -18 -152 -70 -179 -61 -19 6 -19 5 -4 -33 15 -39 16
-39 34 -21 10 10 23 19 28 19 5 0 16 3 25 6 31 12 17 -34 -20 -64 -35 -29 -36
-32 -25 -63 6 -17 11 -45 11 -60 0 -32 7 -36 24 -15 11 14 140 31 132 17 -2
-3 -36 -22 -75 -41 -39 -18 -71 -37 -71 -42 0 -7 126 -48 149 -48 6 0 11 -4
11 -9 0 -12 -122 -20 -135 -9 -18 15 -20 8 -20 -62 0 -63 7 -88 17 -59 2 7 13
9 26 5 18 -6 22 -15 22 -46 0 -31 -4 -39 -22 -44 -33 -9 -36 -8 -41 12 -2 9
-7 -1 -11 -23 -8 -52 -37 -187 -43 -201 -2 -7 10 -17 28 -23 40 -14 45 -10 19
14 -22 20 -28 75 -7 75 6 0 45 -7 86 -17 55 -13 75 -22 81 -38 9 -22 8 -23 29
43 9 29 0 45 -13 23 -4 -5 -42 0 -89 12 -75 20 -82 24 -82 47 0 23 6 26 103
48 68 16 102 28 102 37 0 8 -40 35 -89 60 -86 44 -112 67 -90 81 5 3 45 9 87
14 65 6 79 5 90 -9 11 -14 13 -10 10 24 l-3 40 -72 20 c-40 11 -73 22 -73 25
0 4 32 21 70 40 72 35 74 38 63 78 -4 17 -8 20 -14 11 -8 -14 -151 -32 -175
-22 -19 7 -18 38 3 54 9 8 24 26 33 42 15 24 19 26 30 12 19 -23 57 -18 75 8
14 22 13 30 -5 90 -20 65 -30 82 -30 53z m20 -79 c0 -47 -43 -62 -75 -27 -21
23 -20 24 20 38 46 16 55 14 55 -11z m-10 -506 c30 -18 31 -19 8 -25 -39 -10
-48 -7 -48 19 0 30 1 30 40 6z"/>
<path d="M882 2050 c-12 -12 -22 -26 -22 -33 0 -7 30 -56 66 -110 58 -87 68
-98 91 -95 36 4 42 28 7 25 -24 -2 -34 8 -87 91 -49 76 -57 95 -47 107 22 26
48 16 81 -30 30 -41 49 -56 49 -37 0 4 -16 28 -35 55 -39 53 -67 60 -103 27z"/>
<path d="M1195 1574 c-152 -47 -342 -66 -405 -40 -12 5 -22 -15 -47 -87 -18
-52 -33 -97 -33 -100 0 -4 126 -7 280 -7 217 0 280 -3 280 -12 0 -17 293 -15
298 1 3 8 95 11 279 11 257 0 275 1 270 18 -2 9 -15 54 -27 100 l-23 83 -31
-7 c-85 -19 -233 -2 -430 52 -73 20 -116 12 -162 -28 l-35 -31 -15 22 c-19 26
-66 51 -96 50 -13 0 -59 -11 -103 -25z"/>
<path d="M973 1226 c-50 -12 -83 -25 -83 -32 0 -10 9 -10 42 2 22 8 44 12 47
8 11 -11 13 -159 2 -186 -8 -22 -17 -28 -41 -28 -16 0 -30 -3 -30 -7 0 -6 201
-8 220 -2 3 1 -11 4 -30 8 l-35 6 -5 125 -5 126 -82 -20z"/>
<path d="M1847 1243 c-21 -3 -45 -25 -93 -86 -35 -45 -64 -90 -64 -100 0 -16
8 -18 65 -16 73 3 80 0 70 -30 -5 -15 -15 -21 -37 -21 -17 0 -29 -3 -25 -6 3
-3 44 -6 92 -6 48 0 89 3 92 6 4 3 -6 6 -20 6 -17 0 -28 6 -28 15 -1 8 -2 21
-3 28 -1 6 10 12 23 12 35 0 38 23 4 27 l-28 3 3 88 c1 65 -1 87 -10 86 -7 -1
-26 -4 -41 -6z m-21 -159 c-6 -16 -96 -20 -96 -5 0 5 21 37 48 72 l47 64 3
-59 c2 -32 1 -65 -2 -72z"/>
<path d="M1191 1214 c-25 -20 -31 -34 -31 -63 0 -64 66 -99 128 -67 40 21 40
21 34 -9 -9 -51 -99 -110 -133 -89 -5 3 -9 0 -9 -5 0 -6 12 -11 28 -11 52 0
105 22 146 60 39 37 41 41 41 100 0 55 -3 64 -28 86 -23 19 -39 24 -87 24 -48
0 -64 -4 -89 -26z m119 -4 c22 -22 27 -69 8 -88 -17 -17 -64 -15 -82 4 -24 23
-20 70 6 88 30 21 44 20 68 -4z"/>
<path d="M1450 1166 l0 -75 55 6 c45 5 59 2 75 -12 69 -63 -46 -130 -118 -70
-34 29 -47 21 -29 -16 10 -20 21 -25 62 -27 55 -4 123 18 150 48 26 29 24 79
-6 103 -19 16 -36 18 -91 15 l-68 -4 0 33 0 33 85 0 c78 0 85 2 85 20 0 19 -7
20 -100 20 l-100 0 0 -74z"/>
<path d="M2299 1050 c-25 -24 -30 -37 -27 -67 3 -34 8 -41 58 -70 94 -54 98
-58 78 -79 -16 -16 -18 -16 -45 1 -62 40 -114 88 -109 101 9 25 -10 15 -33
-17 -23 -30 -23 -31 -2 -24 15 4 36 -5 77 -34 l56 -40 -103 -3 c-62 -2 -104
-7 -106 -14 -2 -6 23 -30 56 -53 85 -59 93 -68 81 -92 -6 -10 -15 -19 -21 -19
-6 0 -39 25 -74 56 -44 39 -62 61 -58 73 3 9 -10 0 -30 -18 -42 -40 -45 -45
-19 -37 13 4 37 -10 80 -50 34 -31 62 -62 62 -69 0 -27 -30 -21 -120 26 -52
27 -98 45 -103 40 -4 -4 8 -47 28 -95 37 -90 41 -129 15 -134 -23 -4 -113 130
-103 153 8 21 10 22 -88 -45 -38 -26 -83 -53 -99 -60 -17 -7 -30 -17 -30 -22
0 -5 4 -6 10 -3 9 5 50 -50 50 -67 0 -19 -42 -5 -74 23 l-35 30 -38 -19 c-21
-11 -50 -22 -66 -26 -34 -8 -67 -40 -67 -64 0 -34 25 -54 86 -66 48 -10 60
-16 62 -33 2 -14 -4 -26 -18 -33 -18 -10 -26 -8 -46 11 -29 27 -38 21 -24 -15
8 -22 14 -26 37 -20 95 21 113 115 25 129 -70 12 -80 15 -86 31 -16 42 43 58
81 22 24 -22 31 -11 13 22 -17 31 7 34 41 6 17 -14 38 -26 47 -26 12 0 13 -3
4 -12 -15 -15 -15 -61 0 -76 19 -19 58 -14 118 15 38 18 49 27 37 30 -10 3
-34 38 -57 83 -33 67 -37 80 -25 90 12 10 17 7 26 -14 16 -34 30 -33 23 2 -4
20 0 33 19 50 l24 23 28 -37 c27 -35 27 -38 10 -50 -13 -9 -23 -10 -36 -3 -26
14 -23 -1 7 -36 14 -16 23 -22 20 -13 -5 16 17 48 33 48 3 0 15 -14 25 -32 18
-30 18 -32 1 -45 -23 -16 -47 -17 -63 -1 -6 6 -15 9 -18 5 -9 -8 25 -47 40
-47 6 0 52 31 101 68 76 57 86 68 67 70 -18 3 -30 18 -48 59 -14 31 -24 59
-22 64 2 4 30 -7 63 -24 46 -25 59 -37 57 -52 -3 -20 127 105 161 155 20 29
22 47 4 32 -10 -9 -27 -2 -68 26 l-54 37 97 5 c105 5 112 9 152 88 l17 33 -25
-7 c-31 -7 -143 50 -152 78 -7 24 21 68 44 68 31 0 142 -58 142 -75 0 -26 16
-17 33 20 21 45 21 48 -2 40 -12 -4 -43 6 -80 25 -33 16 -68 30 -76 30 -9 0
-30 -13 -46 -30z m-493 -715 c16 -39 12 -55 -15 -55 -23 0 -41 19 -41 45 0 21
17 45 33 45 4 0 15 -16 23 -35z"/>
<path d="M1443 349 c-30 -9 -49 -33 -22 -26 16 3 61 -132 55 -165 -5 -26 -4
-26 27 -16 65 20 64 19 42 28 -14 5 -27 30 -43 77 -25 79 -27 99 -9 106 21 9
-16 6 -50 -4z"/>
<path d="M1323 317 c-40 -9 -60 -27 -30 -27 14 0 55 -165 44 -176 -11 -11 -46
7 -52 27 -10 30 -26 23 -19 -8 4 -16 10 -32 14 -37 5 -4 45 0 89 9 l81 18 0
38 c0 22 -4 39 -10 39 -5 0 -10 -10 -10 -23 0 -25 -17 -47 -35 -47 -7 0 -20
39 -30 86 -15 72 -16 87 -4 94 22 14 7 17 -38 7z"/>
<path d="M1100 280 c0 -5 7 -10 15 -10 11 0 15 -11 15 -42 0 -43 -23 -92 -63
-135 l-20 -23 41 0 c23 0 42 5 42 10 0 6 -7 10 -15 10 -8 0 -15 2 -15 5 0 10
34 75 39 75 3 0 17 -17 29 -36 19 -29 21 -38 10 -45 -8 -6 5 -9 36 -9 l49 0
-20 23 c-68 75 -97 169 -55 180 9 3 -7 5 -35 6 -30 0 -53 -3 -53 -9z"/>
</g>
</svg>
