<?xml version="1.0" standalone="no"?>
<!DOCTYPE svg PUBLIC "-//W3C//DTD SVG 20010904//EN"
 "http://www.w3.org/TR/2001/REC-SVG-20010904/DTD/svg10.dtd">
<svg version="1.0" xmlns="http://www.w3.org/2000/svg"
 width="1020.000000pt" height="292.000000pt" viewBox="0 0 1020.000000 292.000000"
 preserveAspectRatio="xMidYMid meet">

<g transform="translate(0.000000,292.000000) scale(0.100000,-0.100000)"
fill="#000000" stroke="none">
<path d="M1300 2745 c-60 -30 -120 -84 -161 -142 -9 -13 -35 -29 -58 -38 l-42
-15 45 52 c42 48 85 133 73 145 -9 9 -92 -54 -121 -91 -14 -19 -38 -58 -51
-85 -22 -42 -74 -91 -99 -91 -3 0 10 22 29 49 35 49 72 137 62 148 -3 3 -29
-16 -56 -42 -52 -49 -104 -128 -116 -178 -6 -23 -53 -73 -61 -64 -2 1 11 30
28 64 17 34 32 84 35 110 l4 48 -44 -47 c-44 -47 -87 -142 -87 -194 0 -21 -35
-74 -49 -74 -4 0 -2 28 5 63 8 34 14 77 14 96 l0 34 -24 -23 c-41 -37 -67
-106 -71 -184 -3 -52 -9 -76 -25 -96 l-21 -25 6 49 c6 55 -3 146 -15 146 -4 0
-20 -28 -35 -61 -25 -56 -27 -70 -23 -148 4 -67 2 -93 -11 -116 l-16 -30 -2
50 c-4 67 -24 165 -34 165 -13 0 -39 -99 -39 -149 0 -24 7 -71 16 -102 10 -36
14 -72 10 -93 -9 -48 -26 -56 -26 -13 0 42 -37 167 -50 167 -14 0 -22 -37 -21
-109 0 -68 15 -122 46 -177 13 -21 16 -39 11 -59 -7 -28 -9 -27 -37 40 -16 39
-38 81 -49 95 l-20 25 0 -61 c0 -74 17 -126 65 -198 27 -41 35 -63 35 -97 l-1
-44 -27 56 c-31 64 -81 136 -100 143 -21 9 -14 -43 15 -118 18 -45 45 -88 76
-122 35 -38 49 -63 53 -91 l5 -38 -17 25 c-26 36 -122 130 -134 130 -16 0 -11
-32 13 -80 36 -74 56 -97 112 -134 35 -23 54 -44 57 -61 6 -31 4 -31 -29 -1
-15 14 -48 36 -75 51 -58 31 -63 19 -22 -51 31 -52 74 -90 132 -116 37 -17 82
-66 82 -90 0 -4 -23 6 -51 22 -68 41 -117 61 -124 50 -3 -4 15 -30 39 -57 44
-49 134 -104 191 -117 29 -7 85 -51 85 -67 0 -5 -16 -1 -37 7 -44 19 -173 44
-173 35 0 -12 53 -58 86 -75 41 -20 105 -34 169 -37 33 -2 63 -11 88 -27 20
-14 36 -26 35 -28 -2 -1 -26 2 -53 7 -45 9 -172 5 -182 -5 -9 -9 72 -46 127
-58 48 -9 75 -9 134 1 67 11 78 10 108 -6 l33 -17 -80 -7 c-44 -4 -98 -15
-120 -25 l-40 -17 45 -14 c60 -19 162 -12 224 16 39 17 60 20 98 15 58 -8 62
-19 9 -27 -44 -6 -181 -65 -181 -78 0 -5 33 -9 73 -9 75 0 141 22 205 70 21
15 40 20 68 18 l39 -3 -47 -22 c-44 -20 -143 -101 -134 -110 6 -6 126 27 161
44 16 8 50 34 75 58 35 33 55 44 90 49 37 5 42 4 25 -6 -67 -39 -158 -138
-142 -155 3 -3 30 6 60 20 51 23 115 79 178 155 15 18 34 32 44 32 13 0 9 -9
-18 -40 -34 -37 -77 -116 -77 -140 0 -17 55 19 99 65 42 43 81 109 81 136 0 9
32 36 75 64 41 26 78 52 81 57 6 10 -23 48 -37 48 -5 0 -39 -20 -76 -45 -37
-25 -70 -45 -74 -45 -3 0 -33 12 -64 26 -58 27 -195 46 -195 28 1 -25 110 -74
168 -74 l37 -1 -25 -14 c-36 -21 -57 -18 -95 10 -52 40 -161 73 -218 66 -5 -1
9 -16 30 -34 35 -29 74 -50 138 -73 17 -6 13 -8 -19 -15 -36 -9 -40 -7 -79 32
-23 22 -59 50 -80 61 -52 26 -127 48 -127 37 0 -13 111 -118 132 -125 31 -9
20 -20 -17 -16 -26 3 -40 12 -55 37 -11 18 -38 49 -60 69 -40 36 -118 81 -127
73 -10 -11 32 -73 80 -120 30 -29 43 -47 32 -44 -11 3 -31 9 -45 12 -19 5 -33
23 -57 74 -23 49 -45 78 -79 104 -26 20 -49 35 -52 33 -9 -9 31 -108 55 -136
17 -20 20 -30 11 -30 -27 0 -46 25 -67 90 -21 66 -85 159 -110 160 -19 0 -6
-61 28 -132 15 -32 25 -58 23 -58 -3 0 -19 9 -37 20 -31 19 -33 24 -39 100 -7
80 -46 180 -73 188 -20 6 -16 -100 6 -163 11 -30 17 -55 13 -55 -3 0 -20 14
-38 31 l-32 31 5 93 c6 90 -9 195 -27 195 -18 0 -32 -75 -28 -146 3 -41 2 -74
-1 -74 -3 0 -18 22 -33 49 l-28 48 22 44 c11 24 23 71 26 105 5 70 -5 161 -18
148 -15 -17 -42 -115 -49 -182 l-7 -67 -19 59 -19 58 32 58 c34 62 62 155 62
205 l-1 30 -29 -34 c-35 -41 -70 -112 -70 -141 0 -12 -4 -18 -10 -15 -5 3 -10
26 -10 51 0 38 6 53 39 92 51 60 87 147 71 172 -11 18 -65 -33 -92 -87 -12
-23 -22 -42 -23 -40 -1 1 -5 15 -9 30 -6 25 1 35 59 90 48 45 71 76 85 115 11
28 16 52 11 52 -17 0 -102 -72 -126 -108 l-25 -37 0 32 c0 36 3 39 85 91 57
37 121 110 114 131 -6 17 -91 -27 -138 -72 -45 -43 -44 -44 -26 21 3 11 23 25
47 33 61 20 150 81 171 118 16 27 16 31 3 31 -32 0 -103 -34 -148 -72 -27 -22
-48 -37 -48 -33 0 3 11 28 25 54 24 48 25 49 91 60 37 7 83 21 103 31 40 22
81 54 81 65 0 16 -110 -3 -160 -28 -29 -15 -55 -25 -57 -23 -2 1 13 24 32 49
l35 46 79 -1 c65 0 90 5 135 25 31 14 56 31 56 36 0 20 -138 16 -189 -5 -47
-20 -49 -12 -5 24 35 29 38 30 115 25 78 -6 201 16 215 38 8 14 -47 24 -137
24 l-86 0 35 24 c33 23 37 23 91 10 70 -17 186 -18 202 -2 10 10 3 17 -32 32
-25 11 -61 22 -82 24 -46 5 -57 14 -25 22 15 4 52 -2 89 -15 83 -27 204 -39
197 -19 -7 21 -77 58 -125 65 -48 7 -56 20 -19 30 16 4 50 -7 109 -35 81 -40
211 -69 222 -50 8 13 -101 80 -161 99 l-59 18 79 1 c73 1 181 22 216 41 12 7
7 12 -22 24 -60 26 -136 30 -197 12 -72 -21 -93 -20 -56 2 39 24 135 129 135
148 0 19 -6 18 -80 -21z m-3 -52 c-20 -21 -55 -48 -78 -61 l-40 -23 17 26 c22
33 101 95 122 95 11 0 4 -13 -21 -37z m-187 -12 c0 -12 -82 -111 -92 -111 -13
0 9 37 49 81 37 40 43 45 43 30z m-189 -103 c-33 -52 -71 -94 -71 -80 0 23 78
127 88 117 2 -2 -5 -19 -17 -37z m533 13 c9 -14 -32 -21 -119 -20 -78 1 -79 1
-45 14 40 15 156 20 164 6z m-694 -110 c-19 -42 -50 -86 -50 -69 0 30 56 135
67 125 2 -3 -5 -28 -17 -56z m566 -1 c49 -24 59 -44 17 -34 -40 10 -133 52
-133 60 0 12 70 -4 116 -26z m-156 -38 l25 -11 -29 0 c-33 -1 -106 19 -106 29
0 9 77 -4 110 -18z m-566 -120 c-18 -55 -18 -56 -22 -23 -4 41 30 140 36 103
2 -12 -5 -48 -14 -80z m430 72 c30 -12 8 -19 -48 -16 -31 2 -56 8 -56 13 0 10
80 12 104 3z m-104 -83 c0 -9 -58 -21 -107 -21 -40 0 -44 17 -5 23 52 8 112 7
112 -2z m-445 -128 c-3 -29 -11 -53 -16 -53 -13 0 -11 78 3 125 12 40 12 40
16 10 2 -16 1 -53 -3 -82z m290 22 c-16 -8 -46 -14 -65 -14 l-35 0 30 14 c17
7 46 13 65 13 l35 0 -30 -13z m-385 -152 c0 -35 -4 -63 -9 -63 -13 0 -25 102
-16 130 12 38 25 3 25 -67z m285 38 c-7 -13 -72 -34 -88 -28 -17 5 42 36 71
37 13 0 21 -4 17 -9z m-80 -121 c-7 -12 -81 -60 -91 -60 -12 0 21 33 51 52 34
20 49 23 40 8z m-280 -106 c5 -55 4 -65 -6 -50 -6 10 -13 48 -16 85 -6 90 14
59 22 -35z m188 -54 c-44 -42 -80 -56 -47 -19 18 21 73 59 84 59 3 0 -14 -18
-37 -40z m-217 -138 c9 -30 13 -56 10 -59 -8 -8 -42 72 -50 117 -7 33 -6 34 9
15 9 -11 23 -44 31 -73z m214 40 c0 -12 -71 -94 -77 -88 -5 5 22 50 47 78 16
18 30 23 30 10z m-247 -184 c30 -52 42 -88 29 -88 -10 0 -62 99 -62 118 0 20
7 13 33 -30z m201 -21 c-16 -24 -29 -36 -32 -29 -2 7 8 32 24 55 16 24 29 36
32 29 2 -7 -8 -32 -24 -55z m32 -120 c-11 -45 -39 -102 -43 -89 -6 16 28 112
40 112 5 0 7 -10 3 -23z m-201 -78 c46 -63 53 -88 14 -53 -26 23 -79 94 -79
106 0 22 24 2 65 -53z m230 -145 c-3 -24 -11 -44 -16 -44 -9 0 -6 41 8 100 10
40 16 -4 8 -56z m-171 -45 c62 -56 73 -80 25 -52 -34 20 -99 82 -99 95 0 18
21 6 74 -43z m246 -96 c0 -41 -3 -54 -10 -43 -13 20 -13 100 0 100 6 0 10 -26
10 -57z m-178 -82 c45 -29 67 -51 51 -51 -13 0 -99 56 -107 69 -12 19 8 12 56
-18z m278 -28 c6 -27 14 -54 16 -61 2 -8 -1 -12 -8 -10 -12 4 -19 24 -31 86
-10 50 9 38 23 -15z m125 -113 c14 -27 25 -55 25 -62 0 -15 -40 44 -58 85 -21
48 6 29 33 -23z m-261 -34 c33 -12 55 -25 49 -29 -14 -9 -94 15 -124 37 -22
15 -22 16 -4 15 11 0 47 -10 79 -23z m400 -55 c15 -23 25 -45 22 -48 -6 -7
-25 15 -59 70 -29 46 4 27 37 -22z m154 -45 c35 -32 43 -53 15 -37 -29 16 -83
69 -83 82 0 13 16 3 68 -45z m447 23 c12 -12 -10 -12 -57 2 -21 5 -38 14 -38
18 0 11 81 -6 95 -20z m-289 -45 c19 -15 33 -29 30 -31 -7 -7 -80 34 -101 56
l-19 22 28 -10 c15 -6 43 -23 62 -37z m149 18 c43 -22 13 -28 -41 -7 -55 21
-70 40 -23 30 19 -4 48 -14 64 -23z m-690 -40 c-27 -2 -66 0 -85 4 l-35 7 30
6 c17 4 55 2 85 -4 l55 -10 -50 -3z m888 -92 c-21 -37 -73 -88 -73 -73 0 15
69 103 81 103 6 0 2 -14 -8 -30z m-683 11 c-23 -13 -118 -24 -132 -15 -17 11
29 21 97 23 32 0 45 -3 35 -8z m540 -41 c-10 -19 -98 -85 -105 -78 -6 6 30 43
70 71 47 32 49 33 35 7z m-386 -20 c-40 -19 -134 -39 -123 -26 11 12 114 45
139 45 21 -1 19 -3 -16 -19z m216 5 c0 -7 -121 -67 -127 -62 -5 6 47 44 78 56
27 11 49 14 49 6z"/>
<path d="M1339 2293 c-2 -30 3 -168 8 -179 3 -8 13 -14 21 -12 14 3 16 17 13
93 -1 49 -5 93 -8 97 -6 10 -33 10 -34 1z"/>
<path d="M1410 2284 c0 -9 9 -18 21 -21 19 -5 20 -12 17 -79 -2 -61 0 -74 14
-77 19 -5 28 19 28 83 0 50 10 73 30 68 8 -2 15 4 17 13 5 19 -23 29 -84 29
-33 0 -43 -4 -43 -16z"/>
<path d="M1215 2273 c-35 -9 -37 -19 -16 -103 22 -92 24 -95 46 -86 12 4 14
14 9 41 -5 31 -3 36 19 44 31 12 38 39 21 80 -13 31 -29 36 -79 24z m45 -53
c0 -11 -7 -20 -15 -20 -8 0 -15 9 -15 20 0 11 7 20 15 20 8 0 15 -9 15 -20z"/>
<path d="M1554 2198 c-21 -45 -40 -85 -42 -90 -5 -12 36 -10 43 2 11 18 52 11
58 -10 3 -11 12 -20 21 -20 18 0 20 35 10 139 -6 54 -9 61 -29 61 -17 0 -29
-16 -61 -82z m56 -13 c0 -14 -4 -25 -10 -25 -11 0 -14 33 -3 43 11 11 13 8 13
-18z"/>
<path d="M1702 2160 l-31 -90 36 -15 c48 -20 70 -19 76 5 3 12 0 20 -7 20 -7
0 -21 6 -31 14 -18 13 -18 15 4 76 19 51 21 64 10 71 -8 5 -17 9 -21 9 -3 0
-20 -41 -36 -90z"/>
<path d="M6263 2218 c-5 -7 -22 -48 -37 -90 -39 -113 -59 -143 -105 -156 -21
-7 -41 -12 -44 -12 -3 0 -7 43 -9 96 -3 86 -5 98 -27 115 -13 10 -30 19 -37
19 -12 0 -12 -5 1 -30 15 -30 21 -162 9 -207 -7 -25 -35 -30 -79 -13 -20 8
-29 6 -45 -10 -24 -24 -24 -30 -6 -55 9 -12 25 -18 47 -17 103 3 125 8 147 30
30 30 52 29 52 -3 0 -39 27 -30 62 20 36 51 103 95 145 95 15 0 34 4 42 9 13
8 13 12 1 26 -14 17 -64 17 -104 0 -17 -7 -18 -6 -11 11 42 97 40 227 -2 172z"/>
<path d="M1052 2211 c-11 -6 -10 -24 3 -97 10 -49 19 -92 21 -96 8 -13 34 4
34 23 0 26 34 43 50 24 10 -12 16 -13 26 -4 18 15 18 25 -4 46 -10 10 -35 39
-55 66 -39 47 -51 54 -75 38z m64 -106 c-9 -23 -26 -9 -26 23 0 24 1 25 16 10
10 -9 14 -24 10 -33z"/>
<path d="M8195 2208 c-10 -6 -29 -24 -42 -38 -13 -16 -38 -31 -57 -34 -19 -4
-39 -13 -46 -21 -16 -19 -34 -19 -50 0 -7 8 -16 15 -19 15 -10 0 -51 -75 -51
-93 0 -23 40 -67 61 -67 18 0 38 44 26 57 -4 3 -2 14 4 24 12 22 79 27 79 6 0
-7 -28 -43 -63 -80 -66 -71 -100 -85 -112 -46 -14 45 -52 7 -136 -136 -16 -27
-29 -62 -29 -76 0 -25 36 -69 57 -69 13 0 23 23 23 52 0 55 112 159 242 225
81 41 184 57 213 33 21 -17 19 -25 -16 -65 -38 -43 -31 -55 33 -57 52 -1 86 8
111 30 24 21 21 45 -10 77 -61 61 -158 80 -256 51 -26 -8 -47 -11 -47 -6 0 4
32 29 71 56 96 65 119 122 66 159 -25 18 -26 18 -52 3z m22 -34 c5 -15 -41
-74 -59 -74 -13 0 -9 28 7 60 17 32 42 39 52 14z"/>
<path d="M3390 2178 c1 -13 -28 -78 -62 -145 -67 -131 -72 -136 -158 -149 -25
-3 -108 -24 -184 -46 -140 -39 -144 -39 -208 -13 -15 6 -15 1 2 -57 11 -36 29
-71 42 -82 37 -30 117 -17 238 39 56 25 109 45 118 43 25 -5 25 -26 -1 -50
-37 -35 -44 -56 -58 -164 -10 -84 -9 -105 2 -130 20 -42 62 -59 109 -45 72 22
80 18 80 -42 0 -56 12 -77 42 -77 28 0 36 31 53 198 25 257 24 262 -85 262
l-62 0 6 32 c4 18 12 38 19 45 18 18 148 31 223 21 37 -4 71 -5 75 -2 16 10 9
34 -20 66 -29 33 -31 33 -135 38 l-106 5 61 94 c65 98 73 129 44 161 -24 26
-35 25 -35 -2z m-63 -524 c10 -26 -25 -44 -84 -44 -61 0 -67 12 -20 40 40 25
95 26 104 4z m3 -100 c6 -14 7 -37 4 -52 -14 -65 -10 -62 -91 -62 -55 0 -74 3
-71 12 3 7 20 15 39 19 88 14 105 56 21 51 -50 -4 -52 -3 -52 22 0 23 4 25 53
29 28 2 60 4 70 5 11 1 21 -8 27 -24z"/>
<path d="M922 2138 c-46 -23 -41 -91 13 -145 46 -46 88 -44 114 4 8 15 8 30 1
48 -12 31 -35 28 -35 -3 -1 -43 -22 -48 -55 -12 -39 42 -38 75 4 75 38 0 44
18 11 33 -14 7 -27 12 -28 11 -1 0 -12 -5 -25 -11z"/>
<path d="M4156 2104 c-3 -9 -6 -34 -6 -57 0 -60 -10 -70 -74 -75 -31 -2 -56
-8 -56 -13 0 -22 42 -49 76 -49 33 0 35 -2 32 -27 -4 -33 -75 -90 -144 -116
-41 -15 -50 -15 -75 -3 -28 14 -29 14 -29 -10 0 -36 41 -58 96 -50 41 5 44 4
35 -13 -6 -10 -50 -56 -99 -102 -100 -95 -120 -123 -101 -145 17 -21 24 -18
71 33 24 27 78 84 120 128 l78 80 0 -66 c0 -83 10 -94 80 -84 45 6 54 4 75
-15 20 -19 27 -21 40 -10 20 16 22 224 3 237 -17 10 -56 4 -90 -13 -71 -37
-53 7 28 67 49 36 55 44 52 72 -2 27 -7 32 -28 32 -42 1 -33 37 12 50 47 13
52 19 38 44 -6 13 -21 21 -35 21 -22 0 -25 5 -25 33 0 52 -58 92 -74 51z m78
-420 c9 -23 7 -77 -3 -92 -5 -9 -25 -12 -57 -10 -41 3 -49 6 -49 23 0 15 8 21
33 23 25 3 32 8 30 20 -2 9 -11 16 -20 14 -22 -3 -34 18 -17 29 24 15 76 10
83 -7z"/>
<path d="M7086 1989 c-15 -72 -32 -138 -38 -148 -18 -29 -46 -42 -100 -46 -27
-2 -52 -5 -54 -8 -9 -9 86 -87 106 -87 26 0 26 -30 1 -86 -21 -47 -64 -84 -97
-84 -39 0 -74 -18 -74 -39 0 -53 111 -82 161 -42 33 25 67 97 81 168 7 32 13
60 15 62 5 7 115 -82 197 -160 95 -89 111 -99 166 -99 62 0 140 45 140 80 0
25 -99 59 -176 60 -47 0 -123 43 -199 114 l-70 64 108 51 c59 27 110 58 114
67 8 22 -7 46 -43 63 -25 13 -34 12 -74 -3 -85 -33 -82 -33 -66 10 7 22 22 53
32 70 16 28 16 34 4 50 -17 20 -89 74 -100 74 -4 0 -19 -59 -34 -131z"/>
<path d="M5185 2021 c-45 -72 -79 -101 -97 -83 -6 6 -3 23 10 49 15 28 17 44
11 56 -15 26 -31 21 -75 -22 -75 -71 -117 -208 -79 -251 25 -28 44 -25 89 12
l39 32 -6 -34 c-4 -19 -29 -66 -55 -103 -83 -120 -86 -125 -74 -153 7 -13 18
-24 26 -24 34 0 110 119 166 260 29 73 90 130 140 130 26 0 30 -5 36 -37 8
-42 -11 -63 -57 -63 -41 0 -59 -33 -59 -106 0 -64 14 -90 42 -79 11 5 15 21
14 63 -1 54 0 57 24 57 l25 0 0 -155 c-1 -85 -3 -172 -5 -194 -4 -29 -1 -41
12 -49 34 -22 43 6 48 150 4 111 8 138 21 146 13 8 23 5 44 -11 30 -24 87 -29
103 -9 5 6 13 37 16 67 4 30 10 71 13 91 4 31 1 39 -23 58 -23 18 -36 21 -78
16 -49 -6 -53 -4 -85 30 -32 33 -33 37 -18 52 11 11 45 18 111 24 103 9 116
12 116 34 0 42 -116 47 -217 10 -37 -13 -69 -22 -72 -20 -2 3 2 23 9 45 12 36
11 42 -5 60 -35 38 -61 26 -110 -49z m283 -293 c3 -39 0 -49 -17 -58 -36 -19
-61 3 -61 54 0 51 2 54 43 52 31 -1 32 -3 35 -48z"/>
<path d="M1967 1996 c-47 -53 -54 -66 -42 -76 11 -9 20 -5 44 22 33 36 39 27
17 -27 -12 -28 -12 -36 -1 -52 13 -17 18 -13 74 47 33 36 60 69 61 73 1 21
-32 17 -51 -7 -30 -38 -40 -32 -23 16 16 45 13 68 -9 68 -7 0 -39 -29 -70 -64z"/>
<path d="M3060 2051 c0 -15 45 -74 73 -95 26 -19 30 -19 55 -6 33 19 73 77 65
96 -8 20 -39 17 -73 -7 l-28 -22 -35 22 c-36 22 -57 27 -57 12z"/>
<path d="M4408 1890 c-88 -70 -103 -92 -71 -104 14 -6 15 -20 9 -129 -3 -67
-8 -142 -11 -167 -14 -145 -13 -199 2 -212 13 -10 18 -9 30 7 11 16 14 49 12
155 -1 74 -1 139 0 143 0 5 22 -7 49 -26 54 -39 101 -57 149 -57 103 0 95 78
-17 165 -77 60 -77 61 -23 163 48 89 48 90 29 111 -32 36 -64 26 -158 -49z
m58 -44 c3 -8 -2 -28 -11 -46 -31 -60 -24 -89 33 -140 29 -25 52 -51 52 -57 0
-32 -118 6 -139 45 -12 23 -32 153 -24 164 6 11 65 48 76 48 4 0 10 -6 13 -14z"/>
<path d="M2089 1897 c-44 -30 -59 -69 -38 -105 18 -34 48 -38 95 -16 49 23 76
68 63 103 -6 14 -16 29 -22 33 -22 14 -64 8 -98 -15z m78 -34 c7 -17 -40 -63
-65 -63 -27 0 -26 33 2 57 32 27 54 30 63 6z"/>
<path d="M8088 1861 c-13 -11 -50 -31 -81 -46 -62 -28 -68 -38 -36 -55 15 -9
31 -8 65 4 40 14 46 14 51 0 14 -38 -104 -123 -170 -124 -35 0 -45 -24 -22
-50 26 -29 69 -25 139 15 35 19 70 35 79 35 38 0 62 -92 37 -140 -14 -27 -64
-40 -151 -40 -44 0 -79 -3 -79 -8 0 -18 34 -54 70 -72 43 -22 138 -27 171 -9
11 5 33 28 49 51 38 52 39 109 6 191 -23 55 -23 58 -5 67 10 6 46 13 79 17 67
7 87 25 54 50 -22 16 -92 10 -136 -13 -15 -8 -32 -14 -38 -14 -17 0 -2 41 26
71 13 14 24 32 24 41 0 47 -85 65 -132 29z"/>
<path d="M6227 1830 c-19 -17 -49 -33 -66 -36 -32 -7 -59 -30 -47 -41 3 -3 34
-7 68 -7 61 -1 63 -2 66 -29 5 -44 -14 -59 -63 -51 -50 7 -50 7 -60 -122 l-7
-80 34 -36 c46 -49 88 -56 177 -29 107 33 261 160 261 216 0 14 -23 43 -59 78
-63 60 -67 62 -91 47 -12 -8 -11 -15 8 -55 12 -25 22 -61 22 -80 0 -29 -7 -40
-50 -74 -51 -41 -143 -81 -183 -81 -37 0 -58 22 -64 67 -4 33 -1 45 16 62 11
11 32 21 44 21 33 0 54 26 93 117 39 89 41 104 16 126 -29 27 -77 21 -115 -13z"/>
<path d="M1570 1820 c0 -6 27 -10 60 -10 41 0 60 -4 61 -12 1 -7 1 -57 0 -111
-3 -128 3 -155 36 -164 42 -10 63 25 63 106 0 61 -3 70 -28 94 -38 37 -53 34
-17 -3 26 -27 28 -35 26 -97 -2 -76 -18 -106 -45 -83 -13 10 -16 36 -16 132 0
66 -5 128 -10 139 -9 15 -22 19 -70 19 -33 0 -60 -4 -60 -10z"/>
<path d="M1765 1821 c-3 -6 19 -11 52 -13 l58 -3 3 -115 c4 -159 -2 -196 -43
-237 -30 -30 -38 -33 -93 -33 -55 0 -63 3 -96 35 -42 41 -45 52 -49 179 -1 78
-5 100 -17 104 -12 4 -13 2 -2 -9 8 -9 12 -47 12 -113 0 -127 15 -161 83 -195
39 -19 56 -22 94 -16 56 8 106 54 117 105 11 59 7 295 -6 308 -14 14 -104 16
-113 3z"/>
<path d="M895 1804 c-82 -42 -115 -100 -115 -200 0 -123 73 -202 195 -212 49
-3 69 0 103 17 23 12 42 26 42 31 0 6 -18 1 -40 -10 -93 -48 -219 -8 -268 85
-21 40 -21 150 0 190 40 75 106 108 204 103 40 -2 76 -7 81 -11 4 -5 11 -32
14 -60 7 -52 7 -51 5 13 l-1 65 -95 3 c-71 2 -103 -2 -125 -14z"/>
<path d="M1225 1811 c39 -3 77 -10 85 -16 8 -5 42 -50 75 -99 l60 -88 3 42 c3
35 -1 48 -24 71 -36 38 -44 29 -10 -11 14 -18 23 -36 20 -42 -3 -5 -31 27 -60
71 l-54 81 -83 -2 -82 -2 70 -5z"/>
<path d="M1460 1813 c24 -2 50 -9 57 -15 10 -8 13 -56 13 -185 l0 -174 -51 3
-52 3 -68 99 c-89 129 -87 128 -87 68 -1 -46 3 -55 36 -86 45 -45 57 -37 13 8
-19 20 -31 42 -29 52 2 14 13 4 43 -40 78 -114 92 -126 144 -126 26 0 52 5 59
12 13 13 16 312 3 358 -6 23 -12 25 -66 26 -45 1 -49 0 -15 -3z"/>
<path d="M1446 1790 c-22 -3 -41 -10 -43 -16 -2 -5 10 -23 27 -40 26 -26 29
-35 30 -91 0 -35 -3 -63 -7 -63 -5 0 -39 48 -78 105 l-70 105 -77 0 c-47 0
-78 -4 -78 -10 0 -6 6 -13 14 -16 25 -10 30 -36 36 -179 l5 -140 57 -3 c50 -3
57 -1 63 18 5 16 -2 30 -29 56 -34 33 -36 38 -36 100 0 82 9 80 72 -12 115
-167 105 -156 146 -152 l37 4 3 166 c3 186 6 179 -72 168z"/>
<path d="M1567 1793 c-14 -13 -6 -30 18 -41 25 -11 25 -14 25 -126 l0 -115 38
-41 c33 -34 45 -40 79 -40 115 0 138 38 138 230 l0 135 -60 0 c-72 0 -83 -19
-36 -61 29 -26 31 -31 31 -103 0 -90 -15 -121 -60 -121 -50 0 -60 28 -60 167
l0 123 -53 0 c-30 0 -57 -3 -60 -7z"/>
<path d="M5927 1793 c-4 -3 -7 -9 -7 -13 0 -12 50 -30 81 -30 39 0 102 27 94
40 -7 11 -158 14 -168 3z"/>
<path d="M890 1768 c-50 -34 -72 -71 -78 -127 -7 -71 5 -116 39 -155 31 -36
101 -66 150 -66 35 0 99 30 99 46 0 21 -27 35 -54 28 -33 -8 -44 2 -102 84
-57 81 -64 112 -33 141 12 11 27 21 32 21 19 0 64 -33 83 -61 35 -54 64 -30
64 53 l0 58 -84 0 c-70 0 -88 -4 -116 -22z"/>
<path d="M2175 1759 c-81 -34 -87 -39 -75 -59 7 -11 13 -12 36 -1 20 9 30 9
38 1 8 -8 2 -19 -20 -38 -31 -26 -36 -52 -10 -52 7 0 23 11 36 25 14 15 35 25
50 25 15 0 35 9 44 19 17 19 17 22 1 65 -10 25 -20 46 -24 45 -3 0 -37 -14
-76 -30z m65 -39 c0 -11 -7 -20 -15 -20 -15 0 -21 21 -8 33 12 13 23 7 23 -13z"/>
<path d="M1150 1741 c0 -5 5 -13 10 -16 6 -4 10 -63 10 -145 0 -162 4 -170 81
-170 27 0 49 5 49 10 0 6 -22 10 -49 10 -29 0 -53 5 -58 13 -4 6 -10 77 -13
156 -4 103 -9 146 -17 149 -7 2 -13 -1 -13 -7z"/>
<path d="M6031 1646 c-39 -46 -91 -102 -116 -125 -37 -34 -49 -40 -74 -35 -26
6 -31 3 -37 -21 -9 -38 10 -75 39 -75 18 0 46 24 103 88 159 175 196 222 190
237 -11 29 -35 14 -105 -69z"/>
<path d="M923 1713 c-26 -10 -13 -60 35 -129 36 -53 53 -70 75 -72 16 -2 27 2
27 8 0 7 -6 10 -14 7 -19 -7 -35 7 -79 70 -43 62 -48 82 -24 97 16 9 23 6 46
-21 30 -36 48 -44 32 -15 -27 50 -63 70 -98 55z"/>
<path d="M5893 1693 c-35 -13 20 -80 56 -68 21 6 61 50 61 66 0 9 -96 11 -117
2z"/>
<path d="M2236 1601 c-74 -15 -101 -31 -78 -45 6 -3 31 -2 56 3 58 11 59 1 1
-22 -31 -13 -45 -25 -45 -38 0 -16 8 -19 48 -20 l47 -1 -45 -12 c-30 -8 -46
-18 -48 -30 -3 -15 1 -18 20 -13 12 3 53 11 91 18 64 12 67 14 67 40 0 27 -3
28 -52 31 l-53 4 43 18 c37 17 42 23 42 53 0 18 -3 33 -7 32 -5 -1 -44 -9 -87
-18z"/>
<path d="M2180 1379 c0 -12 8 -23 19 -26 21 -5 18 -38 -6 -61 -16 -17 -17 -32
0 -32 6 0 49 10 95 22 78 21 83 24 80 48 -3 22 -11 27 -68 41 -36 8 -77 19
-92 22 -24 6 -28 4 -28 -14z m120 -49 c0 -5 -7 -10 -15 -10 -8 0 -18 0 -22 -1
-4 0 -9 4 -11 10 -2 6 8 11 22 11 14 0 26 -4 26 -10z"/>
<path d="M1095 1350 c-103 -31 -147 -39 -210 -39 l-80 -1 -16 -57 c-9 -32 -19
-66 -24 -75 -7 -17 7 -18 218 -18 140 0 227 -4 229 -10 5 -15 281 -16 286 -2
3 9 67 12 229 12 l225 0 -6 23 c-4 12 -12 42 -19 67 -19 69 -20 70 -107 70
-57 0 -112 9 -197 32 -160 42 -194 45 -239 19 -34 -20 -38 -21 -55 -5 -33 30
-95 26 -234 -16z"/>
<path d="M2176 1193 c-9 -58 -7 -73 9 -73 9 0 18 13 22 31 l6 31 78 -7 c74 -6
79 -5 79 13 0 17 -11 21 -75 31 -112 16 -111 16 -119 -26z"/>
<path d="M1678 1078 c-37 -29 -119 -140 -114 -154 4 -9 21 -14 56 -14 37 0 50
-4 50 -14 0 -8 -9 -18 -20 -21 -40 -13 -18 -25 45 -25 51 0 65 3 65 15 0 8 -8
15 -18 15 -10 0 -19 7 -19 15 0 8 9 15 19 15 25 0 23 36 -2 43 -11 3 -20 9
-19 14 1 4 1 34 0 66 -1 59 -11 70 -43 45z m-8 -93 c0 -32 -2 -35 -30 -35 -16
0 -30 3 -30 7 0 7 51 63 57 63 2 0 3 -16 3 -35z"/>
<path d="M1020 1071 c0 -5 -10 -11 -22 -13 -32 -5 -35 -28 -3 -28 l26 0 -3
-77 c-3 -72 -5 -78 -25 -81 -13 -2 -23 -10 -23 -18 0 -11 17 -14 80 -14 81 0
103 12 55 30 -24 9 -25 12 -25 110 l0 100 -30 0 c-16 0 -30 -4 -30 -9z"/>
<path d="M1166 1059 c-37 -29 -36 -80 1 -109 26 -20 44 -22 93 -9 11 3 14 -3
12 -20 -3 -34 -30 -61 -59 -61 -21 0 -22 2 -12 21 13 25 0 43 -27 37 -25 -4
-29 -41 -8 -63 28 -28 109 -16 140 21 39 49 31 156 -15 191 -26 20 -95 16
-125 -8z m99 -43 c0 -46 -23 -68 -49 -47 -16 14 -22 72 -9 85 4 4 19 6 33 4
22 -3 25 -8 25 -42z"/>
<path d="M1359 1070 c-1 -3 -2 -29 -3 -57 -2 -56 11 -68 40 -38 22 21 41 19
70 -10 29 -29 26 -58 -8 -87 -23 -20 -36 -22 -57 -9 -12 8 -13 12 -1 26 11 14
11 18 -3 32 -8 9 -23 13 -31 10 -26 -10 -19 -53 12 -77 22 -18 35 -21 72 -16
83 11 118 89 65 142 -22 22 -33 25 -73 22 -60 -4 -67 15 -8 22 40 5 76 23 76
39 0 8 -149 9 -151 1z"/>
<path d="M2953 1005 c-81 -35 -86 -198 -6 -234 30 -14 108 -14 134 -1 25 14
26 45 2 35 -79 -32 -122 -25 -148 24 -52 102 36 197 135 146 28 -15 30 -14 30
4 0 36 -87 52 -147 26z"/>
<path d="M4573 1013 c-10 -4 -13 -38 -13 -129 0 -117 1 -124 20 -124 19 0 20
7 20 113 l0 112 45 -80 c25 -44 53 -95 62 -112 12 -23 24 -33 40 -33 23 0 23
1 23 125 0 104 -2 125 -15 125 -12 0 -15 -18 -15 -97 -1 -113 0 -113 -75 18
-41 72 -63 91 -92 82z"/>
<path d="M4878 1005 c-38 -21 -58 -65 -58 -126 0 -45 4 -55 34 -85 29 -29 41
-34 83 -34 26 0 59 6 73 13 66 33 78 154 21 210 -36 36 -110 47 -153 22z m107
-21 c44 -17 60 -122 25 -167 -43 -55 -128 -39 -150 27 -30 92 41 172 125 140z"/>
<path d="M5373 1013 c-10 -3 -13 -39 -13 -130 0 -113 2 -124 18 -121 15 3 17
16 17 101 -1 53 2 97 5 97 3 0 20 -30 38 -66 19 -37 38 -64 45 -62 6 2 29 35
49 74 l37 69 1 -107 c0 -89 3 -108 15 -108 13 0 15 21 15 129 l0 128 -24 -4
c-17 -4 -31 -21 -52 -65 -16 -33 -32 -62 -36 -64 -4 -3 -22 24 -39 58 -37 74
-47 83 -76 71z"/>
<path d="M6417 1014 c-4 -4 -7 -48 -7 -99 0 -102 -8 -121 -57 -131 -26 -5 -37
-1 -57 19 -24 24 -26 33 -26 117 0 73 -3 90 -15 90 -12 0 -15 -18 -15 -100 0
-94 2 -103 25 -125 20 -21 34 -25 79 -25 48 0 57 3 80 31 25 30 27 36 24 127
-3 88 -12 115 -31 96z"/>
<path d="M6523 1013 c-10 -4 -13 -38 -13 -129 0 -102 3 -124 15 -124 12 0 15
21 17 111 l3 111 64 -111 c53 -92 67 -111 87 -111 24 0 24 0 24 123 0 68 -3
126 -6 130 -3 3 -12 3 -20 0 -11 -4 -14 -28 -14 -102 l0 -96 -58 97 c-55 93
-72 110 -99 101z"/>
<path d="M6774 1011 c-9 -9 -3 -21 11 -21 12 0 15 -18 15 -100 0 -80 -3 -102
-15 -106 -33 -13 -12 -25 38 -22 28 2 51 8 50 13 -2 6 -9 10 -15 10 -10 0 -14
29 -16 103 -3 97 -2 102 18 102 11 0 20 4 20 9 0 9 -98 20 -106 12z"/>
<path d="M6900 1007 c0 -7 20 -62 44 -122 66 -165 82 -166 145 -9 24 60 45
115 48 122 3 7 -3 12 -14 12 -14 0 -27 -23 -58 -105 -22 -58 -42 -105 -45
-105 -3 0 -23 45 -44 101 -22 56 -47 104 -58 110 -13 7 -18 6 -18 -4z"/>
<path d="M7693 1010 c-31 -12 -56 -55 -48 -80 9 -29 40 -46 107 -60 31 -6 59
-17 62 -26 21 -54 -67 -76 -156 -39 -13 5 -18 2 -18 -9 0 -24 33 -36 98 -36
76 0 112 25 112 75 0 39 -25 57 -95 70 -22 4 -48 11 -57 16 -25 13 -23 46 3
60 22 11 87 8 123 -6 14 -6 17 -4 14 11 -5 29 -95 44 -145 24z"/>
<path d="M8128 1012 c-117 -3 -162 -18 -70 -24 l47 -3 3 -113 c2 -101 5 -113
20 -110 15 3 17 18 19 113 l2 110 50 3 50 3 40 -60 c36 -52 41 -67 41 -115 0
-49 2 -56 20 -56 18 0 20 7 20 58 0 51 5 64 45 125 39 57 43 67 26 67 -12 0
-31 -19 -51 -50 -18 -27 -36 -50 -40 -50 -4 0 -22 22 -39 49 -18 27 -39 50
-49 52 -9 2 -70 3 -134 1z"/>
<path d="M3209 983 c-47 -122 -79 -209 -79 -215 0 -5 6 -8 14 -8 8 0 20 16 27
35 13 34 14 35 70 35 57 0 58 -1 70 -35 8 -22 20 -35 31 -35 15 0 13 11 -18
98 -20 53 -41 109 -46 125 -7 19 -17 27 -34 27 -17 0 -28 -8 -35 -27z m71
-110 c0 -8 -15 -13 -40 -13 -44 0 -46 3 -26 51 7 19 16 43 20 54 6 17 11 12
27 -30 10 -27 19 -56 19 -62z"/>
<path d="M3408 913 c-4 -122 0 -153 17 -153 9 0 15 15 17 48 l3 47 49 6 c57 6
76 26 76 80 0 51 -27 69 -102 69 l-57 0 -3 -97z m110 61 c46 -32 13 -94 -50
-94 -27 0 -28 2 -28 48 0 27 3 52 7 55 11 12 48 7 71 -9z"/>
<path d="M3615 1000 c3 -5 13 -10 21 -10 11 0 14 -20 14 -101 0 -92 -2 -101
-20 -106 -35 -9 -10 -23 41 -23 49 0 66 13 29 23 -18 5 -20 14 -20 106 0 94 1
101 20 101 11 0 20 5 20 10 0 6 -25 10 -56 10 -34 0 -53 -4 -49 -10z"/>
<path d="M3750 997 c0 -10 13 -14 43 -13 l42 1 3 -112 c2 -90 6 -113 17 -113
11 0 15 23 17 113 l3 112 30 2 c17 0 38 2 48 2 9 1 17 6 17 11 0 6 -43 10
-110 10 -86 0 -110 -3 -110 -13z"/>
<path d="M4039 983 c-5 -16 -26 -70 -45 -121 -20 -51 -34 -96 -30 -99 12 -12
35 7 41 36 6 30 8 31 66 31 58 0 59 -1 73 -35 15 -36 55 -53 41 -17 -4 9 -22
58 -40 107 -18 50 -36 98 -40 108 -12 28 -54 22 -66 -10z m39 -121 c-22 -2
-42 -1 -44 1 -4 3 13 57 32 107 4 9 15 -7 29 -45 l23 -60 -40 -3z"/>
<path d="M4240 885 l0 -125 80 0 c64 0 80 3 80 15 0 12 -14 15 -65 15 l-65 0
0 110 c0 91 -3 110 -15 110 -13 0 -15 -21 -15 -125z"/>
<path d="M5115 998 c-3 -7 -4 -62 -3 -123 3 -95 5 -110 21 -113 14 -3 17 4 17
47 0 49 1 51 28 51 20 0 38 -12 72 -51 32 -36 52 -50 65 -47 17 3 13 11 -29
56 l-49 52 27 21 c34 27 36 81 4 103 -28 20 -146 22 -153 4z m131 -33 c25 -34
-10 -75 -63 -75 l-33 0 0 51 0 52 42 -6 c23 -3 48 -13 54 -22z"/>
<path d="M5686 889 c-27 -66 -46 -123 -43 -126 13 -12 35 7 42 36 7 31 7 31
70 31 l63 0 12 -35 c8 -25 18 -35 32 -35 15 0 18 4 13 18 -4 9 -23 57 -42 106
-46 119 -50 126 -77 126 -20 0 -29 -16 -70 -121z m113 -16 c1 -9 -14 -13 -44
-13 -25 0 -45 2 -45 4 0 2 10 30 22 62 l22 58 22 -50 c13 -27 23 -55 23 -61z"/>
<path d="M5910 885 l0 -125 85 0 c69 0 85 3 85 15 0 12 -14 15 -65 15 l-65 0
0 110 c0 103 -1 110 -20 110 -19 0 -20 -7 -20 -125z"/>
<path d="M7170 885 l0 -125 96 0 c72 0 95 3 92 13 -3 8 -30 13 -76 15 l-72 3
0 49 0 50 75 0 c43 0 75 4 75 10 0 6 -32 10 -76 10 l-75 0 3 38 3 37 73 3
c107 4 88 22 -23 22 l-95 0 0 -125z"/>
<path d="M7400 885 c0 -118 1 -125 20 -125 17 0 20 7 20 50 0 45 2 50 23 50
14 0 41 -19 72 -50 43 -44 85 -65 85 -43 0 4 -21 29 -47 55 l-47 47 27 21 c20
16 27 31 27 55 0 49 -28 65 -112 65 l-68 0 0 -125z m114 95 c20 -7 26 -17 26
-39 0 -35 -22 -51 -69 -51 -30 0 -31 1 -31 50 0 46 2 50 24 50 14 0 36 -4 50
-10z"/>
<path d="M7890 1001 c0 -5 9 -11 20 -14 18 -5 20 -14 20 -102 0 -88 -2 -97
-20 -102 -39 -10 -19 -23 36 -23 40 0 55 3 52 13 -3 6 -11 12 -19 12 -11 0
-15 22 -17 103 -3 97 -2 102 18 102 11 0 20 5 20 10 0 6 -25 10 -55 10 -30 0
-55 -4 -55 -9z"/>
<path d="M2097 913 c-24 -27 -21 -66 6 -90 38 -34 97 -65 112 -59 27 10 16 25
-42 59 -58 33 -81 67 -47 67 10 0 42 -14 71 -30 53 -30 73 -32 73 -5 0 16 -84
65 -125 72 -22 3 -35 -1 -48 -14z"/>
<path d="M2039 804 c-11 -14 -9 -19 11 -35 14 -10 28 -19 33 -19 4 0 7 -4 7
-8 0 -5 -20 -6 -45 -2 -41 6 -65 -2 -65 -21 0 -13 140 -110 150 -104 18 11 10
30 -23 53 l-32 23 55 -3 c70 -4 77 16 20 57 -23 17 -54 40 -70 52 -25 21 -29
21 -41 7z"/>
<path d="M1940 675 c-10 -12 -5 -21 26 -49 105 -94 110 -97 120 -71 4 9 -15
33 -51 67 -73 67 -80 71 -95 53z"/>
<path d="M1872 597 c-10 -11 -3 -30 30 -90 24 -42 48 -77 55 -77 22 0 24 20 5
48 -11 15 -25 38 -32 51 -11 22 -9 21 35 -9 40 -28 49 -30 61 -18 12 12 5 20
-50 56 -80 52 -90 56 -104 39z"/>
<path d="M1772 513 c-24 -21 -30 -32 -23 -43 8 -12 13 -12 36 0 20 11 28 11
38 1 9 -10 8 -14 -5 -22 -20 -11 -24 -34 -8 -44 5 -3 18 0 29 7 29 18 38 2 13
-25 -16 -17 -19 -26 -11 -34 14 -14 79 24 79 46 0 18 -91 140 -105 141 -6 0
-25 -12 -43 -27z"/>
<path d="M1690 450 c-13 -8 -13 -13 3 -39 9 -16 17 -32 17 -35 0 -13 -28 -5
-45 14 -20 22 -40 26 -51 8 -4 -6 6 -23 24 -39 18 -16 32 -37 32 -47 0 -10 11
-29 24 -41 l24 -22 40 20 c22 11 43 25 47 31 5 7 -89 160 -98 160 -1 0 -9 -5
-17 -10z m56 -121 c10 -17 -13 -36 -27 -22 -12 12 -4 33 11 33 5 0 12 -5 16
-11z"/>
<path d="M1506 354 c-44 -44 -7 -114 60 -114 32 0 42 -9 27 -23 -3 -4 -12 -2
-20 4 -10 9 -17 8 -29 -1 -26 -22 5 -44 50 -36 44 8 57 42 32 81 -13 20 -25
25 -56 25 -33 0 -40 3 -40 20 0 20 24 28 35 10 8 -13 35 -1 35 16 0 31 -68 45
-94 18z"/>
<path d="M1421 311 c-12 -8 -11 -22 9 -90 24 -84 34 -101 52 -83 7 7 5 30 -7
74 -9 34 -19 73 -22 86 -6 24 -11 26 -32 13z"/>
<path d="M1304 267 c3 -13 8 -49 12 -80 6 -49 4 -57 -10 -57 -9 0 -16 -8 -16
-19 0 -17 5 -18 48 -10 64 12 72 16 72 34 0 11 -7 15 -22 13 -20 -3 -23 3 -30
47 -14 88 -17 95 -39 95 -17 0 -20 -5 -15 -23z"/>
<path d="M1170 228 c0 -24 -9 -63 -20 -87 -25 -55 -25 -63 2 -59 13 2 24 11
26 23 7 37 22 40 34 7 11 -29 35 -41 51 -26 3 3 -7 30 -24 58 -17 32 -29 67
-29 89 0 30 -4 37 -20 37 -17 0 -20 -7 -20 -42z"/>
</g>
</svg>
